<?xml version="1.0" encoding="utf-8"?>
<!-- Generator: Adobe Illustrator 22.0.1, SVG Export Plug-In . SVG Version: 6.00 Build 0)  -->
<svg version="1.1" id="Layer_1" xmlns="http://www.w3.org/2000/svg" xmlns:xlink="http://www.w3.org/1999/xlink" x="0px" y="0px"
	 viewBox="0 0 77 34" style="enable-background:new 0 0 77 34;" xml:space="preserve">
<style type="text/css">
	.st0{fill:none;}
	.st1{fill:#FFFFFF;}
</style>
<g id="Layer_2_1_">
</g>
<title>Logo</title>
<desc>Created with Sketch.</desc>
<path id="Navbar" class="st0" d="M-7.1-11.6L-7.1-11.6L-7.1-11.6z"/>
<g>
	<path class="st1" d="M7,12.1h1.8v1.4l0,0c0.3-0.5,0.8-0.9,1.4-1.2c0.6-0.3,1.2-0.4,1.9-0.4s1.4,0.1,2,0.4s1.1,0.6,1.5,1.1
		s0.7,1,1,1.6c0.2,0.6,0.3,1.3,0.3,2s-0.1,1.4-0.3,2s-0.5,1.1-1,1.6c-0.4,0.4-0.9,0.8-1.5,1.1c-0.6,0.3-1.3,0.4-2,0.4
		s-1.3-0.1-1.9-0.4c-0.6-0.3-1.1-0.7-1.4-1.2l0,0v7H7V12.1z M11.9,13.6c-0.5,0-0.9,0.1-1.3,0.2c-0.4,0.1-0.7,0.4-1,0.7
		c-0.3,0.3-0.5,0.6-0.6,1s-0.2,0.9-0.2,1.3c0,0.5,0.1,0.9,0.2,1.3c0.1,0.4,0.4,0.8,0.6,1c0.3,0.3,0.6,0.5,1,0.7s0.8,0.2,1.3,0.2
		s0.9-0.1,1.3-0.2c0.4-0.2,0.7-0.4,1-0.7c0.3-0.3,0.5-0.6,0.6-1s0.2-0.8,0.2-1.3s-0.1-0.9-0.2-1.3c-0.1-0.4-0.4-0.8-0.6-1
		c-0.3-0.3-0.6-0.5-1-0.7S12.4,13.6,11.9,13.6z"/>
	<path class="st1" d="M19.2,6.5H21v7.1l0,0c0.2-0.5,0.6-0.9,1.2-1.2c0.6-0.3,1.2-0.5,1.9-0.5c0.5,0,0.9,0.1,1.3,0.2
		c0.4,0.1,0.8,0.4,1.1,0.6c0.3,0.3,0.6,0.7,0.8,1.1c0.2,0.5,0.3,1,0.3,1.6v6.2h-1.8V16c0-0.4-0.1-0.8-0.2-1.1
		c-0.1-0.3-0.3-0.6-0.5-0.8c-0.2-0.2-0.4-0.3-0.7-0.4c-0.2-0.1-0.5-0.1-0.8-0.1c-0.4,0-0.7,0.1-1,0.2s-0.6,0.3-0.8,0.6
		s-0.4,0.6-0.6,1c-0.1,0.4-0.2,0.9-0.2,1.4v4.8h-1.8V6.5z"/>
	<path class="st1" d="M47.3,13.7h-2.6V18c0,0.3,0,0.5,0,0.8s0.1,0.5,0.2,0.7c0.1,0.2,0.2,0.4,0.4,0.5s0.4,0.2,0.8,0.2
		c0.2,0,0.4,0,0.7-0.1s0.4-0.1,0.6-0.2v1.6c-0.2,0.1-0.5,0.2-0.8,0.2s-0.6,0.1-0.8,0.1c-0.7,0-1.2-0.1-1.6-0.3
		c-0.4-0.2-0.7-0.4-0.8-0.8c-0.2-0.3-0.3-0.7-0.3-1s0-0.8,0-1.2v-4.9H41V12h2.1V9.3h1.8V12h2.6v1.7L47.3,13.7L47.3,13.7z"/>
	<path class="st1" d="M49.1,16.9c0-0.7,0.1-1.3,0.4-1.9s0.6-1.1,1.1-1.6s1-0.8,1.6-1.1s1.3-0.4,2-0.4s1.4,0.1,2,0.4s1.1,0.6,1.6,1.1
		s0.8,1,1.1,1.6s0.4,1.2,0.4,1.9c0,0.7-0.1,1.3-0.4,2s-0.6,1.1-1.1,1.6c-0.5,0.4-1,0.8-1.6,1.1c-0.6,0.3-1.3,0.4-2,0.4
		s-1.4-0.1-2-0.4s-1.1-0.6-1.6-1.1c-0.5-0.4-0.8-1-1.1-1.6C49.3,18.2,49.1,17.6,49.1,16.9z M51.1,16.9c0,0.5,0.1,0.9,0.2,1.3
		c0.1,0.4,0.4,0.8,0.6,1c0.3,0.3,0.6,0.5,1,0.7s0.8,0.2,1.3,0.2s0.9-0.1,1.3-0.2c0.4-0.2,0.7-0.4,1-0.7c0.3-0.3,0.5-0.6,0.6-1
		s0.2-0.8,0.2-1.3s-0.1-0.9-0.2-1.3c-0.1-0.4-0.4-0.8-0.6-1c-0.3-0.3-0.6-0.5-1-0.7c-0.4-0.3-0.8-0.3-1.3-0.3s-0.9,0.1-1.3,0.2
		c-0.4,0.1-0.7,0.4-1,0.7c-0.3,0.3-0.5,0.6-0.6,1C51.1,15.9,51.1,16.4,51.1,16.9z"/>
	<path class="st1" d="M61.5,12.1h1.8v1.5l0,0c0.2-0.5,0.6-0.9,1.2-1.2s1.2-0.5,1.9-0.5c0.5,0,0.9,0.1,1.3,0.2
		c0.4,0.1,0.8,0.4,1.1,0.6c0.3,0.3,0.6,0.7,0.8,1.1c0.2,0.5,0.3,1,0.3,1.6v6.2h-1.8V16c0-0.4-0.1-0.8-0.2-1.1
		c-0.1-0.3-0.3-0.6-0.5-0.8c-0.2-0.2-0.4-0.3-0.7-0.4c-0.2-0.1-0.5-0.1-0.8-0.1c-0.4,0-0.7,0.1-1,0.2s-0.6,0.3-0.8,0.6
		c-0.2,0.3-0.4,0.6-0.6,1c-0.1,0.4-0.2,0.9-0.2,1.4v4.8h-1.8V12.1z"/>
	<path class="st1" d="M39.6,14.9c-0.3-0.6-0.6-1.1-1.1-1.6s-1-0.8-1.6-1.1c-0.6-0.3-1.3-0.4-2-0.4s-1.4,0.1-2,0.4s-1.1,0.6-1.6,1.1
		s-0.8,1-1.1,1.6s-0.4,1.2-0.4,1.9c0,0.7,0.1,1.3,0.4,2c0.3,0.6,0.6,1.1,1.1,1.6c0.5,0.4,1,0.8,1.6,1.1c0.6,0.3,1.3,0.4,2,0.4
		s1.4-0.1,2-0.4s1.1-0.6,1.6-1.1c0.5-0.4,0.8-1,1.1-1.6s0.4-1.3,0.4-2S39.8,15.5,39.6,14.9z"/>
</g>
</svg>
