<?xml version="1.0" encoding="utf-8"?>
<!-- Generator: Adobe Illustrator 22.0.1, SVG Export Plug-In . SVG Version: 6.00 Build 0)  -->
<svg version="1.1" id="Layer_1" xmlns="http://www.w3.org/2000/svg" xmlns:xlink="http://www.w3.org/1999/xlink" x="0px" y="0px"
	 viewBox="0 0 276 50" style="enable-background:new 0 0 276 50;" xml:space="preserve">
<style type="text/css">
	.st0{fill:none;}
	.st1{fill:#FFFFFF;}
	.st2{font-family:'Avenir-Light';}
	.st3{font-size:40px;}
	.st4{fill:#03A9F4;stroke:#03A9F4;stroke-width:6;stroke-miterlimit:10;}
	.st5{enable-background:new    ;}
</style>
<rect x="75.6" y="6.5" class="st0" width="193.6" height="37.7"/>
<text transform="matrix(1 0 0 1 77.5408 36.7012)" class="st1 st2 st3">signed out</text>
<rect x="74.6" y="6.5" class="st0" width="193.6" height="37.7"/>
<text transform="matrix(1 0 0 1 76.5408 36.7012)" class="st1 st2 st3">signed out</text>
<g>
	<path class="st4" d="M28.4,13c6.6,0,12,5.4,12,12s-5.4,12-12,12s-12-5.4-12-12S21.8,13,28.4,13 M28.4,12.5
		c-6.9,0-12.5,5.5-12.5,12.5s5.6,12.5,12.5,12.5S40.9,32,40.9,25S35.4,12.5,28.4,12.5L28.4,12.5z"/>
</g>
<rect x="75.6" y="6.5" class="st0" width="193.6" height="37.7"/>
<g class="st5">
	<path class="st1" d="M80.8,32c0.5,1,1.3,1.7,2.2,2.3c1,0.5,2,0.8,3.1,0.8c0.5,0,1-0.1,1.5-0.2c0.5-0.2,1-0.4,1.4-0.7s0.7-0.6,1-1.1
		c0.3-0.4,0.4-0.9,0.4-1.4c0-0.9-0.3-1.5-0.8-1.9s-1.2-0.8-2-1s-1.7-0.4-2.6-0.6c-1-0.2-1.8-0.4-2.6-0.8c-0.8-0.4-1.5-0.9-2-1.5
		s-0.8-1.5-0.8-2.7c0-0.9,0.2-1.7,0.6-2.4c0.4-0.7,0.9-1.2,1.5-1.7c0.6-0.4,1.3-0.8,2-1s1.5-0.3,2.3-0.3c1.5,0,2.8,0.3,3.9,0.8
		c1.1,0.6,2,1.4,2.6,2.6l-2.2,1.3c-0.5-0.9-1-1.5-1.7-1.9s-1.6-0.7-2.7-0.7c-0.4,0-0.9,0.1-1.3,0.2c-0.5,0.1-0.9,0.3-1.3,0.6
		c-0.4,0.2-0.7,0.5-0.9,0.9C82.1,22,82,22.4,82,22.9c0,0.8,0.3,1.4,0.8,1.8s1.2,0.7,2,0.9c0.8,0.2,1.7,0.4,2.6,0.6
		c1,0.2,1.8,0.4,2.6,0.8c0.8,0.4,1.5,0.9,2,1.6s0.8,1.6,0.8,2.9c0,1-0.2,1.8-0.5,2.5c-0.4,0.7-0.9,1.3-1.5,1.8s-1.3,0.8-2.1,1.1
		c-0.8,0.2-1.6,0.4-2.5,0.4c-1.6,0-3.1-0.3-4.4-0.9c-1.3-0.6-2.3-1.6-3.1-2.8L80.8,32z"/>
	<path class="st1" d="M97.6,10.9c0-0.5,0.2-0.9,0.5-1.3c0.3-0.3,0.8-0.5,1.3-0.5s0.9,0.2,1.3,0.5c0.3,0.3,0.5,0.8,0.5,1.3
		s-0.2,0.9-0.5,1.3c-0.3,0.3-0.8,0.5-1.3,0.5s-0.9-0.2-1.3-0.5C97.8,11.8,97.6,11.4,97.6,10.9z M98.2,18.2h2.4v18.5h-2.4V18.2z"/>
	<path class="st1" d="M125.9,35.5c0,2.3-0.3,4.1-1,5.6c-0.7,1.4-1.5,2.5-2.5,3.3s-2.1,1.3-3.2,1.6s-2.2,0.4-3.1,0.4
		s-1.8-0.1-2.7-0.3c-0.9-0.2-1.7-0.4-2.5-0.8c-0.8-0.3-1.5-0.7-2.2-1.2s-1.2-1-1.7-1.6l1.9-1.8c0.9,1.2,1.9,2.1,3.2,2.6
		c1.3,0.6,2.6,0.8,4.1,0.8c1.2,0,2.3-0.2,3.1-0.5s1.5-0.7,2.1-1.3c0.5-0.5,1-1.1,1.3-1.7c0.3-0.6,0.5-1.3,0.7-1.9
		c0.1-0.6,0.2-1.2,0.3-1.8c0-0.6,0-1,0-1.4v-2.6h-0.1c-0.7,1.1-1.6,2-2.8,2.6c-1.2,0.6-2.6,1-4.2,1c-1.4,0-2.6-0.2-3.8-0.7
		c-1.2-0.5-2.2-1.2-3.1-2c-0.9-0.9-1.6-1.9-2.1-3s-0.8-2.4-0.8-3.7c0-1.3,0.3-2.5,0.8-3.7c0.5-1.1,1.2-2.1,2.1-3s1.9-1.5,3.1-2
		s2.5-0.8,3.8-0.8c1.6,0,3,0.3,4.2,1c1.2,0.6,2.1,1.5,2.8,2.6h0.1v-3.1h2.4v17.4H125.9z M123.6,27.2c0-1-0.2-2-0.6-2.9
		s-0.9-1.7-1.6-2.3c-0.7-0.7-1.4-1.2-2.3-1.6s-1.8-0.6-2.9-0.6c-1,0-2,0.2-2.9,0.6s-1.7,0.9-2.3,1.6c-0.7,0.7-1.2,1.4-1.6,2.3
		s-0.6,1.8-0.6,2.9c0,1,0.2,2,0.6,2.9s0.9,1.7,1.6,2.3c0.7,0.7,1.4,1.2,2.3,1.6c0.9,0.4,1.8,0.6,2.9,0.6c1,0,2-0.2,2.9-0.6
		c0.9-0.4,1.7-0.9,2.3-1.6s1.2-1.4,1.6-2.3C123.4,29.2,123.6,28.2,123.6,27.2z"/>
	<path class="st1" d="M131.8,23.4c0-0.3,0-0.8,0-1.3s0-1-0.1-1.5c0-0.5,0-1-0.1-1.4c0-0.4,0-0.8,0-1h2.4c0,0.7,0,1.4,0.1,2
		c0,0.6,0,1.1,0.1,1.2h0.1c0.5-1,1.3-1.9,2.4-2.6c1.1-0.7,2.4-1.1,3.9-1.1c1.4,0,2.6,0.2,3.5,0.7s1.6,1,2.1,1.8
		c0.5,0.7,0.9,1.6,1.1,2.5c0.2,1,0.3,1.9,0.3,3v11h-2.4V25.8c0-0.7-0.1-1.5-0.2-2.2c-0.1-0.7-0.4-1.3-0.7-1.9s-0.8-1-1.4-1.3
		c-0.6-0.3-1.4-0.5-2.3-0.5c-0.9,0-1.7,0.2-2.5,0.5s-1.5,0.8-2,1.4c-0.6,0.6-1,1.4-1.4,2.4c-0.3,0.9-0.5,2.1-0.5,3.3v9.2h-2.4
		L131.8,23.4L131.8,23.4z"/>
	<path class="st1" d="M170.4,33.2c-0.9,1.4-2.1,2.4-3.5,3s-2.9,0.9-4.5,0.9c-1.4,0-2.7-0.2-3.8-0.7s-2.1-1.2-3-2
		c-0.8-0.9-1.5-1.9-1.9-3.1c-0.4-1.2-0.7-2.5-0.7-3.9s0.2-2.7,0.7-3.8c0.5-1.2,1.1-2.2,1.9-3.1c0.8-0.9,1.8-1.5,2.9-2
		s2.4-0.7,3.7-0.7c1.4,0,2.7,0.2,3.7,0.7s2,1.1,2.7,2s1.3,1.7,1.7,2.8c0.4,1,0.6,2.1,0.6,3.2v1.7h-15.5c0,0.5,0.1,1.2,0.3,1.9
		c0.2,0.8,0.6,1.6,1.1,2.3c0.5,0.7,1.2,1.4,2.1,1.9c0.9,0.5,2,0.8,3.5,0.8c1.2,0,2.4-0.3,3.6-0.9c1.1-0.6,2-1.4,2.6-2.4L170.4,33.2z
		 M168.5,25.9c0-0.8-0.2-1.6-0.5-2.3c-0.3-0.7-0.8-1.4-1.4-1.9s-1.3-1-2-1.3c-0.8-0.3-1.6-0.5-2.5-0.5c-1.3,0-2.4,0.3-3.3,0.8
		c-0.9,0.5-1.6,1.1-2.1,1.8c-0.5,0.7-0.9,1.4-1.1,2c-0.2,0.7-0.3,1.1-0.3,1.3h13.2V25.9z"/>
	<path class="st1" d="M192.5,33.5L192.5,33.5c-0.5,0.6-0.9,1.2-1.5,1.7s-1.2,0.9-1.8,1.2c-0.7,0.3-1.3,0.5-2.1,0.7
		c-0.7,0.1-1.4,0.2-2.1,0.2c-1.4,0-2.7-0.2-3.9-0.7s-2.2-1.2-3.1-2s-1.5-1.9-2-3.1c-0.5-1.2-0.7-2.5-0.7-3.9s0.2-2.7,0.7-3.9
		c0.5-1.2,1.1-2.2,2-3.1s1.9-1.5,3.1-2c1.2-0.5,2.5-0.7,3.9-0.7c0.7,0,1.4,0.1,2.1,0.2c0.7,0.1,1.4,0.4,2.1,0.7
		c0.7,0.3,1.3,0.7,1.8,1.2c0.6,0.5,1,1,1.4,1.7h0.1v-15h2.4v30.2h-2.4V33.5z M192.7,27.5c0-1-0.2-2-0.6-2.9
		c-0.4-0.9-0.9-1.7-1.6-2.4c-0.7-0.7-1.5-1.2-2.4-1.6s-1.9-0.6-3-0.6s-2.1,0.2-3,0.6s-1.7,0.9-2.3,1.6s-1.1,1.5-1.5,2.4
		c-0.3,0.9-0.5,1.9-0.5,2.9s0.2,2,0.5,2.9s0.8,1.7,1.5,2.4c0.6,0.7,1.4,1.2,2.3,1.6c0.9,0.4,1.9,0.6,3,0.6s2.1-0.2,3-0.6
		c0.9-0.4,1.7-0.9,2.4-1.6c0.7-0.7,1.2-1.5,1.6-2.4S192.7,28.5,192.7,27.5z"/>
	<path class="st1" d="M210.1,27.5c0-1.4,0.2-2.7,0.7-3.9c0.5-1.2,1.1-2.2,2-3.1s1.9-1.5,3.1-2c1.2-0.5,2.5-0.7,3.9-0.7
		s2.7,0.2,3.9,0.7s2.2,1.2,3.1,2s1.5,1.9,2,3.1s0.7,2.5,0.7,3.9s-0.2,2.7-0.7,3.9s-1.2,2.2-2,3.1s-1.9,1.5-3.1,2
		c-1.2,0.5-2.5,0.7-3.9,0.7s-2.7-0.2-3.9-0.7s-2.2-1.2-3.1-2c-0.9-0.9-1.5-1.9-2-3.1S210.1,28.9,210.1,27.5z M212.5,27.5
		c0,1,0.2,2,0.5,2.9s0.8,1.7,1.5,2.4c0.6,0.7,1.4,1.2,2.3,1.6c0.9,0.4,1.9,0.6,3,0.6s2.1-0.2,3-0.6c0.9-0.4,1.7-0.9,2.3-1.6
		c0.6-0.7,1.1-1.5,1.5-2.4c0.3-0.9,0.5-1.9,0.5-2.9s-0.2-2-0.5-2.9s-0.8-1.7-1.5-2.4c-0.6-0.7-1.4-1.2-2.3-1.6
		c-0.9-0.4-1.9-0.6-3-0.6s-2.1,0.2-3,0.6s-1.7,0.9-2.3,1.6s-1.1,1.5-1.5,2.4C212.7,25.4,212.5,26.4,212.5,27.5z"/>
	<path class="st1" d="M250.5,31.5c0,0.3,0,0.8,0,1.3s0,1,0.1,1.5c0,0.5,0,1,0.1,1.4c0,0.4,0,0.8,0,1h-2.4c0-0.7,0-1.4-0.1-2
		c0-0.6,0-1.1-0.1-1.2H248c-0.5,1-1.3,1.9-2.4,2.6s-2.4,1.1-3.9,1.1c-1.4,0-2.6-0.2-3.5-0.7s-1.6-1-2.2-1.8
		c-0.5-0.7-0.9-1.6-1.1-2.5c-0.2-1-0.3-1.9-0.3-3v-11h2.4v10.9c0,0.7,0.1,1.5,0.2,2.2c0.1,0.7,0.4,1.3,0.7,1.9s0.8,1,1.4,1.3
		c0.6,0.3,1.4,0.5,2.3,0.5c0.9,0,1.7-0.2,2.5-0.5s1.5-0.8,2-1.4c0.6-0.6,1-1.4,1.4-2.4c0.3-0.9,0.5-2.1,0.5-3.3v-9.2h2.4v13.3H250.5
		z"/>
	<path class="st1" d="M266.2,20.4h-5.3v12c0,0.8,0.2,1.5,0.7,1.9c0.5,0.5,1.1,0.7,1.9,0.7c0.5,0,0.9-0.1,1.4-0.2s0.9-0.3,1.3-0.5
		l0.2,2.2c-0.5,0.2-1,0.3-1.6,0.4c-0.6,0.1-1.1,0.2-1.6,0.2c-0.9,0-1.6-0.1-2.2-0.4c-0.6-0.3-1.1-0.6-1.5-1s-0.6-0.9-0.8-1.5
		c-0.2-0.6-0.3-1.2-0.3-1.9v-12h-4v-2.2h4v-5.3h2.4v5.3h5.3v2.3H266.2z"/>
</g>
</svg>
