<?xml version="1.0" encoding="utf-8"?>
<!-- Generator: Adobe Illustrator 22.0.1, SVG Export Plug-In . SVG Version: 6.00 Build 0)  -->
<svg version="1.1" id="Layer_1" xmlns="http://www.w3.org/2000/svg" xmlns:xlink="http://www.w3.org/1999/xlink" x="0px" y="0px"
	 viewBox="0 0 250 50" style="enable-background:new 0 0 250 50;" xml:space="preserve">
<style type="text/css">
	.st0{fill:#03A9F4;}
	.st1{fill:none;}
	.st2{enable-background:new    ;}
	.st3{fill:#FFFFFF;stroke:#FFFFFF;stroke-miterlimit:10;}
</style>
<g>
	<circle class="st0" cx="23.5" cy="25" r="12.2"/>
	<path class="st0" d="M23.5,13c6.6,0,12,5.4,12,12s-5.4,12-12,12s-12-5.4-12-12S16.9,13,23.5,13 M23.5,12.5C16.6,12.5,11,18.1,11,25
		s5.6,12.5,12.5,12.5S36,31.9,36,25S30.4,12.5,23.5,12.5L23.5,12.5z"/>
</g>
<rect x="56.8" y="5.5" class="st1" width="188.7" height="37.7"/>
<g class="st2">
	<path class="st3" d="M73.3,31c0.5,1,1.3,1.7,2.2,2.3c1,0.5,2,0.8,3.1,0.8c0.5,0,1-0.1,1.5-0.2c0.5-0.2,1-0.4,1.4-0.7s0.7-0.6,1-1.1
		c0.3-0.4,0.4-0.9,0.4-1.4c0-0.9-0.3-1.5-0.8-1.9s-1.2-0.8-2-1s-1.7-0.4-2.6-0.6c-1-0.2-1.8-0.4-2.6-0.8c-0.8-0.4-1.5-0.9-2-1.5
		s-0.8-1.5-0.8-2.7c0-0.9,0.2-1.7,0.6-2.4c0.4-0.7,0.9-1.2,1.5-1.7c0.6-0.4,1.3-0.8,2-1s1.5-0.3,2.3-0.3c1.5,0,2.8,0.3,3.9,0.8
		c1.1,0.6,2,1.4,2.6,2.6l-2.2,1.3c-0.5-0.9-1-1.5-1.7-1.9s-1.6-0.7-2.7-0.7c-0.4,0-0.9,0.1-1.3,0.2c-0.5,0.1-0.9,0.3-1.3,0.6
		c-0.4,0.2-0.7,0.5-0.9,0.9c-0.3,0.4-0.4,0.8-0.4,1.3c0,0.8,0.3,1.4,0.8,1.8s1.2,0.7,2,0.9c0.8,0.2,1.7,0.4,2.6,0.6
		c1,0.2,1.8,0.4,2.6,0.8c0.8,0.4,1.5,0.9,2,1.6s0.8,1.6,0.8,2.9c0,1-0.2,1.8-0.5,2.5c-0.4,0.7-0.9,1.3-1.5,1.8s-1.3,0.8-2.1,1.1
		c-0.8,0.2-1.6,0.4-2.5,0.4c-1.6,0-3.1-0.3-4.4-0.9c-1.3-0.6-2.3-1.6-3.1-2.8L73.3,31z"/>
	<path class="st3" d="M90.1,9.9c0-0.5,0.2-0.9,0.5-1.3c0.3-0.3,0.8-0.5,1.3-0.5s0.9,0.2,1.3,0.5c0.3,0.3,0.5,0.8,0.5,1.3
		s-0.2,0.9-0.5,1.3c-0.3,0.3-0.8,0.5-1.3,0.5s-0.9-0.2-1.3-0.5C90.2,10.8,90.1,10.4,90.1,9.9z M90.7,17.2h2.4v18.5h-2.4V17.2z"/>
	<path class="st3" d="M118.4,34.5c0,2.3-0.3,4.1-1,5.6c-0.7,1.4-1.5,2.5-2.5,3.3s-2.1,1.3-3.2,1.6s-2.2,0.4-3.1,0.4
		s-1.8-0.1-2.7-0.3c-0.9-0.2-1.7-0.4-2.5-0.8c-0.8-0.3-1.5-0.7-2.2-1.2s-1.2-1-1.7-1.6l1.9-1.8c0.9,1.2,1.9,2.1,3.2,2.6
		c1.3,0.6,2.6,0.8,4.1,0.8c1.2,0,2.3-0.2,3.1-0.5s1.5-0.7,2.1-1.3c0.5-0.5,1-1.1,1.3-1.7c0.3-0.6,0.5-1.3,0.7-1.9
		c0.1-0.6,0.2-1.2,0.3-1.8c0-0.6,0-1,0-1.4v-2.6h-0.1c-0.7,1.1-1.6,2-2.8,2.6c-1.2,0.6-2.6,1-4.2,1c-1.4,0-2.6-0.2-3.8-0.7
		c-1.2-0.5-2.2-1.2-3.1-2c-0.9-0.9-1.6-1.9-2.1-3s-0.8-2.4-0.8-3.7c0-1.3,0.3-2.5,0.8-3.7c0.5-1.1,1.2-2.1,2.1-3s1.9-1.5,3.1-2
		s2.5-0.8,3.8-0.8c1.6,0,3,0.3,4.2,1c1.2,0.6,2.1,1.5,2.8,2.6h0.1v-3.1h2.4v17.4C118.6,34.5,118.4,34.5,118.4,34.5z M116.1,26.2
		c0-1-0.2-2-0.6-2.9s-0.9-1.7-1.6-2.3c-0.7-0.7-1.4-1.2-2.3-1.6s-1.8-0.6-2.9-0.6c-1,0-2,0.2-2.9,0.6s-1.7,0.9-2.3,1.6
		c-0.7,0.7-1.2,1.4-1.6,2.3s-0.6,1.8-0.6,2.9c0,1,0.2,2,0.6,2.9s0.9,1.7,1.6,2.3c0.7,0.7,1.4,1.2,2.3,1.6s1.8,0.6,2.9,0.6
		c1,0,2-0.2,2.9-0.6c0.9-0.4,1.7-0.9,2.3-1.6s1.2-1.4,1.6-2.3S116.1,27.2,116.1,26.2z"/>
	<path class="st3" d="M124.3,22.4c0-0.3,0-0.8,0-1.3s0-1-0.1-1.5c0-0.5,0-1-0.1-1.4c0-0.4,0-0.8,0-1h2.4c0,0.7,0,1.4,0.1,2
		c0,0.6,0,1.1,0.1,1.2h0.1c0.5-1,1.3-1.9,2.4-2.6c1.1-0.7,2.4-1.1,3.9-1.1c1.4,0,2.6,0.2,3.5,0.7s1.6,1,2.1,1.8
		c0.5,0.7,0.9,1.6,1.1,2.5s0.3,1.9,0.3,3v11h-2.4V24.8c0-0.7-0.1-1.5-0.2-2.2c-0.1-0.7-0.4-1.3-0.7-1.9s-0.8-1-1.4-1.3
		c-0.6-0.3-1.4-0.5-2.3-0.5c-0.9,0-1.7,0.2-2.5,0.5s-1.5,0.8-2,1.4c-0.6,0.6-1,1.4-1.4,2.4c-0.3,0.9-0.5,2.1-0.5,3.3v9.2h-2.4
		L124.3,22.4L124.3,22.4z"/>
	<path class="st3" d="M162.9,32.2c-0.9,1.4-2.1,2.4-3.5,3s-2.9,0.9-4.5,0.9c-1.4,0-2.7-0.2-3.8-0.7s-2.1-1.2-3-2
		c-0.8-0.9-1.5-1.9-1.9-3.1s-0.7-2.5-0.7-3.9s0.2-2.7,0.7-3.8c0.5-1.2,1.1-2.2,1.9-3.1c0.8-0.9,1.8-1.5,2.9-2
		c1.1-0.5,2.4-0.7,3.7-0.7c1.4,0,2.7,0.2,3.7,0.7s2,1.1,2.7,2s1.3,1.7,1.7,2.8c0.4,1,0.6,2.1,0.6,3.2v1.7h-15.5
		c0,0.5,0.1,1.2,0.3,1.9c0.2,0.8,0.6,1.6,1.1,2.3c0.5,0.7,1.2,1.4,2.1,1.9c0.9,0.5,2,0.8,3.5,0.8c1.2,0,2.4-0.3,3.6-0.9
		s2-1.4,2.6-2.4L162.9,32.2z M161,24.9c0-0.8-0.2-1.6-0.5-2.3c-0.3-0.7-0.8-1.4-1.4-1.9c-0.6-0.5-1.3-1-2-1.3
		c-0.8-0.3-1.6-0.5-2.5-0.5c-1.3,0-2.4,0.3-3.3,0.8c-0.9,0.5-1.6,1.1-2.1,1.8c-0.5,0.7-0.9,1.4-1.1,2s-0.3,1.1-0.3,1.3H161V24.9z"/>
	<path class="st3" d="M184.9,32.5L184.9,32.5c-0.5,0.6-0.9,1.2-1.5,1.7s-1.2,0.9-1.8,1.2s-1.3,0.5-2.1,0.7c-0.7,0.1-1.4,0.2-2.1,0.2
		c-1.4,0-2.7-0.2-3.9-0.7s-2.2-1.2-3.1-2c-0.9-0.9-1.5-1.9-2-3.1s-0.7-2.5-0.7-3.9s0.2-2.7,0.7-3.9c0.5-1.2,1.1-2.2,2-3.1
		s1.9-1.5,3.1-2c1.2-0.5,2.5-0.7,3.9-0.7c0.7,0,1.4,0.1,2.1,0.2c0.7,0.1,1.4,0.4,2.1,0.7s1.3,0.7,1.8,1.2c0.6,0.5,1,1,1.4,1.7h0.1
		v-15h2.4v30.2h-2.4V32.5z M185.2,26.5c0-1-0.2-2-0.6-2.9c-0.4-0.9-0.9-1.7-1.6-2.4s-1.5-1.2-2.4-1.6s-1.9-0.6-3-0.6s-2.1,0.2-3,0.6
		s-1.7,0.9-2.3,1.6s-1.1,1.5-1.5,2.4c-0.3,0.9-0.5,1.9-0.5,2.9s0.2,2,0.5,2.9s0.8,1.7,1.5,2.4c0.6,0.7,1.4,1.2,2.3,1.6
		c0.9,0.4,1.9,0.6,3,0.6s2.1-0.2,3-0.6c0.9-0.4,1.7-0.9,2.4-1.6c0.7-0.7,1.2-1.5,1.6-2.4C185,28.5,185.2,27.5,185.2,26.5z"/>
	<path class="st3" d="M203.4,9.9c0-0.5,0.2-0.9,0.5-1.3c0.3-0.3,0.8-0.5,1.3-0.5s0.9,0.2,1.3,0.5c0.3,0.3,0.5,0.8,0.5,1.3
		s-0.2,0.9-0.5,1.3s-0.8,0.5-1.3,0.5s-0.9-0.2-1.3-0.5C203.6,10.8,203.4,10.4,203.4,9.9z M204,17.2h2.4v18.5H204V17.2z"/>
	<path class="st3" d="M213.2,22.4c0-0.3,0-0.8,0-1.3s0-1-0.1-1.5c0-0.5,0-1-0.1-1.4s0-0.8,0-1h2.4c0,0.7,0,1.4,0.1,2
		c0,0.6,0,1.1,0.1,1.2h0.1c0.5-1,1.3-1.9,2.4-2.6c1.1-0.7,2.4-1.1,3.9-1.1c1.4,0,2.6,0.2,3.5,0.7s1.6,1,2.1,1.8
		c0.5,0.7,0.9,1.6,1.1,2.5s0.3,1.9,0.3,3v11h-2.4V24.8c0-0.7-0.1-1.5-0.2-2.2c-0.1-0.7-0.4-1.3-0.7-1.9s-0.8-1-1.4-1.3
		c-0.6-0.3-1.4-0.5-2.3-0.5c-0.9,0-1.7,0.2-2.5,0.5s-1.5,0.8-2,1.4c-0.6,0.6-1,1.4-1.4,2.4c-0.3,0.9-0.5,2.1-0.5,3.3v9.2h-2.4
		L213.2,22.4L213.2,22.4z"/>
</g>
</svg>
