<?xml version="1.0" encoding="utf-8"?>
<!-- Generator: Adobe Illustrator 19.0.0, SVG Export Plug-In . SVG Version: 6.00 Build 0)  -->
<svg version="1.1" id="Layer_1" xmlns="http://www.w3.org/2000/svg" xmlns:xlink="http://www.w3.org/1999/xlink" x="0px" y="0px"
	 viewBox="-259 403.9 77 34" style="enable-background:new -259 403.9 77 34;" xml:space="preserve">
<style type="text/css">
	.st0{fill:none;}
	.st1{fill:#FFFFFF;}
</style>
<g id="Layer_2">
</g>
<title>Logo</title>
<desc>Created with Sketch.</desc>
<path id="Navbar" class="st0" d="M-266.1,392.3L-266.1,392.3L-266.1,392.3z"/>
<g>
	<path class="st1" d="M-252,416h1.8v1.4l0,0c0.3-0.5,0.8-0.9,1.4-1.2c0.6-0.3,1.2-0.4,1.9-0.4s1.4,0.1,2,0.4s1.1,0.6,1.5,1.1
		s0.7,1,1,1.6c0.2,0.6,0.3,1.3,0.3,2s-0.1,1.4-0.3,2s-0.5,1.1-1,1.6c-0.4,0.4-0.9,0.8-1.5,1.1c-0.6,0.3-1.3,0.4-2,0.4
		s-1.3-0.1-1.9-0.4c-0.6-0.3-1.1-0.7-1.4-1.2l0,0v7h-1.8V416z M-247.1,417.5c-0.5,0-0.9,0.1-1.3,0.2c-0.4,0.1-0.7,0.4-1,0.7
		c-0.3,0.3-0.5,0.6-0.6,1s-0.2,0.9-0.2,1.3c0,0.5,0.1,0.9,0.2,1.3c0.1,0.4,0.4,0.8,0.6,1c0.3,0.3,0.6,0.5,1,0.7s0.8,0.2,1.3,0.2
		s0.9-0.1,1.3-0.2c0.4-0.2,0.7-0.4,1-0.7c0.3-0.3,0.5-0.6,0.6-1s0.2-0.8,0.2-1.3s-0.1-0.9-0.2-1.3c-0.1-0.4-0.4-0.8-0.6-1
		c-0.3-0.3-0.6-0.5-1-0.7S-246.6,417.5-247.1,417.5z"/>
	<path class="st1" d="M-239.8,410.4h1.8v7.1l0,0c0.2-0.5,0.6-0.9,1.2-1.2c0.6-0.3,1.2-0.5,1.9-0.5c0.5,0,0.9,0.1,1.3,0.2
		c0.4,0.1,0.8,0.4,1.1,0.6c0.3,0.3,0.6,0.7,0.8,1.1c0.2,0.5,0.3,1,0.3,1.6v6.2h-1.8v-5.6c0-0.4-0.1-0.8-0.2-1.1
		c-0.1-0.3-0.3-0.6-0.5-0.8c-0.2-0.2-0.4-0.3-0.7-0.4c-0.2-0.1-0.5-0.1-0.8-0.1c-0.4,0-0.7,0.1-1,0.2s-0.6,0.3-0.8,0.6
		s-0.4,0.6-0.6,1c-0.1,0.4-0.2,0.9-0.2,1.4v4.8h-1.8V410.4z"/>
	<path class="st1" d="M-211.7,417.6h-2.6v4.3c0,0.3,0,0.5,0,0.8s0.1,0.5,0.2,0.7c0.1,0.2,0.2,0.4,0.4,0.5s0.4,0.2,0.8,0.2
		c0.2,0,0.4,0,0.7-0.1s0.4-0.1,0.6-0.2v1.6c-0.2,0.1-0.5,0.2-0.8,0.2s-0.6,0.1-0.8,0.1c-0.7,0-1.2-0.1-1.6-0.3
		c-0.4-0.2-0.7-0.4-0.8-0.8c-0.2-0.3-0.3-0.7-0.3-1s0-0.8,0-1.2v-4.9h-2.1v-1.6h2.1v-2.7h1.8v2.7h2.6v1.7L-211.7,417.6L-211.7,417.6
		z"/>
	<path class="st1" d="M-209.9,420.8c0-0.7,0.1-1.3,0.4-1.9s0.6-1.1,1.1-1.6s1-0.8,1.6-1.1s1.3-0.4,2-0.4s1.4,0.1,2,0.4
		s1.1,0.6,1.6,1.1s0.8,1,1.1,1.6s0.4,1.2,0.4,1.9c0,0.7-0.1,1.3-0.4,2s-0.6,1.1-1.1,1.6c-0.5,0.4-1,0.8-1.6,1.1
		c-0.6,0.3-1.3,0.4-2,0.4s-1.4-0.1-2-0.4s-1.1-0.6-1.6-1.1c-0.5-0.4-0.8-1-1.1-1.6C-209.7,422.1-209.9,421.5-209.9,420.8z
		 M-207.9,420.8c0,0.5,0.1,0.9,0.2,1.3c0.1,0.4,0.4,0.8,0.6,1c0.3,0.3,0.6,0.5,1,0.7s0.8,0.2,1.3,0.2s0.9-0.1,1.3-0.2
		c0.4-0.2,0.7-0.4,1-0.7c0.3-0.3,0.5-0.6,0.6-1s0.2-0.8,0.2-1.3s-0.1-0.9-0.2-1.3c-0.1-0.4-0.4-0.8-0.6-1c-0.3-0.3-0.6-0.5-1-0.7
		c-0.4-0.3-0.8-0.3-1.3-0.3s-0.9,0.1-1.3,0.2c-0.4,0.1-0.7,0.4-1,0.7c-0.3,0.3-0.5,0.6-0.6,1C-207.9,419.8-207.9,420.3-207.9,420.8z
		"/>
	<path class="st1" d="M-197.5,416h1.8v1.5l0,0c0.2-0.5,0.6-0.9,1.2-1.2s1.2-0.5,1.9-0.5c0.5,0,0.9,0.1,1.3,0.2
		c0.4,0.1,0.8,0.4,1.1,0.6c0.3,0.3,0.6,0.7,0.8,1.1c0.2,0.5,0.3,1,0.3,1.6v6.2h-1.8v-5.6c0-0.4-0.1-0.8-0.2-1.1
		c-0.1-0.3-0.3-0.6-0.5-0.8c-0.2-0.2-0.4-0.3-0.7-0.4c-0.2-0.1-0.5-0.1-0.8-0.1c-0.4,0-0.7,0.1-1,0.2s-0.6,0.3-0.8,0.6
		c-0.2,0.3-0.4,0.6-0.6,1c-0.1,0.4-0.2,0.9-0.2,1.4v4.8h-1.8V416z"/>
	<path class="st1" d="M-219.4,418.8c-0.3-0.6-0.6-1.1-1.1-1.6s-1-0.8-1.6-1.1c-0.6-0.3-1.3-0.4-2-0.4s-1.4,0.1-2,0.4
		s-1.1,0.6-1.6,1.1s-0.8,1-1.1,1.6s-0.4,1.2-0.4,1.9c0,0.7,0.1,1.3,0.4,2c0.3,0.6,0.6,1.1,1.1,1.6c0.5,0.4,1,0.8,1.6,1.1
		c0.6,0.3,1.3,0.4,2,0.4s1.4-0.1,2-0.4s1.1-0.6,1.6-1.1c0.5-0.4,0.8-1,1.1-1.6s0.4-1.3,0.4-2S-219.2,419.4-219.4,418.8z"/>
</g>
</svg>
