<?xml version="1.0" encoding="utf-8"?>
<!-- Generator: Adobe Illustrator 22.0.1, SVG Export Plug-In . SVG Version: 6.00 Build 0)  -->
<svg version="1.1" xmlns="http://www.w3.org/2000/svg" xmlns:xlink="http://www.w3.org/1999/xlink" x="0px" y="0px"
	 viewBox="0 0 77 34" style="enable-background:new 0 0 77 34;" xml:space="preserve">
<style type="text/css">
	.st0{fill:none;}
	.st1{fill:#FFFFFF;}
</style>
<g id="Layer_2">
</g>
<g id="Layer_1">
	<title>Logo</title>
	<desc>Created with Sketch.</desc>
	<polygon id="Navbar" class="st0" points="-9,-10 -9,-10 -9,-10 	"/>
	<g>
		<path class="st1" d="M5.5,13.5h1.8v1.4h0c0.3-0.5,0.8-0.9,1.4-1.2c0.6-0.3,1.2-0.4,1.9-0.4c0.7,0,1.4,0.1,2,0.4
			c0.6,0.3,1.1,0.6,1.5,1.1c0.4,0.5,0.7,1,1,1.6c0.2,0.6,0.3,1.3,0.3,2c0,0.7-0.1,1.4-0.3,2c-0.2,0.6-0.5,1.1-1,1.6
			c-0.4,0.4-0.9,0.8-1.5,1.1c-0.6,0.3-1.3,0.4-2,0.4c-0.7,0-1.3-0.1-1.9-0.4c-0.6-0.3-1.1-0.7-1.4-1.2h0v7H5.5V13.5z M10.4,15
			c-0.5,0-0.9,0.1-1.3,0.2s-0.7,0.4-1,0.7c-0.3,0.3-0.5,0.6-0.6,1c-0.1,0.4-0.2,0.9-0.2,1.3c0,0.5,0.1,0.9,0.2,1.3
			c0.1,0.4,0.4,0.8,0.6,1c0.3,0.3,0.6,0.5,1,0.7c0.4,0.2,0.8,0.2,1.3,0.2s0.9-0.1,1.3-0.2c0.4-0.2,0.7-0.4,1-0.7
			c0.3-0.3,0.5-0.6,0.6-1c0.1-0.4,0.2-0.8,0.2-1.3c0-0.5-0.1-0.9-0.2-1.3c-0.1-0.4-0.4-0.8-0.6-1c-0.3-0.3-0.6-0.5-1-0.7
			S10.9,15,10.4,15z"/>
		<path class="st1" d="M17.7,7.9h1.8V15h0c0.2-0.5,0.6-0.9,1.2-1.2s1.2-0.5,1.9-0.5c0.5,0,0.9,0.1,1.3,0.2c0.4,0.1,0.8,0.4,1.1,0.6
			c0.3,0.3,0.6,0.7,0.8,1.1c0.2,0.5,0.3,1,0.3,1.6V23h-1.8v-5.6c0-0.4-0.1-0.8-0.2-1.1c-0.1-0.3-0.3-0.6-0.5-0.8
			c-0.2-0.2-0.4-0.3-0.7-0.4C22.7,15,22.4,15,22.1,15c-0.4,0-0.7,0.1-1,0.2c-0.3,0.1-0.6,0.3-0.8,0.6c-0.2,0.3-0.4,0.6-0.6,1
			c-0.1,0.4-0.2,0.9-0.2,1.4V23h-1.8V7.9z"/>
		<path class="st1" d="M45.8,15.1h-2.6v4.3c0,0.3,0,0.5,0,0.8c0,0.3,0.1,0.5,0.2,0.7s0.2,0.4,0.4,0.5c0.2,0.1,0.4,0.2,0.8,0.2
			c0.2,0,0.4,0,0.7-0.1s0.4-0.1,0.6-0.2v1.6c-0.2,0.1-0.5,0.2-0.8,0.2s-0.6,0.1-0.8,0.1c-0.7,0-1.2-0.1-1.6-0.3s-0.7-0.4-0.8-0.8
			c-0.2-0.3-0.3-0.7-0.3-1s0-0.8,0-1.2v-4.9h-2.1v-1.6h2.1v-2.7h1.8v2.7h2.6V15.1z"/>
		<path class="st1" d="M47.6,18.3c0-0.7,0.1-1.3,0.4-1.9c0.3-0.6,0.6-1.1,1.1-1.6s1-0.8,1.6-1.1s1.3-0.4,2-0.4s1.4,0.1,2,0.4
			s1.1,0.6,1.6,1.1s0.8,1,1.1,1.6c0.3,0.6,0.4,1.2,0.4,1.9s-0.1,1.3-0.4,2s-0.6,1.1-1.1,1.6c-0.5,0.4-1,0.8-1.6,1.1
			c-0.6,0.3-1.3,0.4-2,0.4s-1.4-0.1-2-0.4c-0.6-0.3-1.1-0.6-1.6-1.1c-0.5-0.4-0.8-1-1.1-1.6C47.8,19.6,47.6,19,47.6,18.3z
			 M49.6,18.3c0,0.5,0.1,0.9,0.2,1.3c0.1,0.4,0.4,0.8,0.6,1c0.3,0.3,0.6,0.5,1,0.7c0.4,0.2,0.8,0.2,1.3,0.2c0.5,0,0.9-0.1,1.3-0.2
			c0.4-0.2,0.7-0.4,1-0.7c0.3-0.3,0.5-0.6,0.6-1c0.1-0.4,0.2-0.8,0.2-1.3c0-0.5-0.1-0.9-0.2-1.3c-0.1-0.4-0.4-0.8-0.6-1
			c-0.3-0.3-0.6-0.5-1-0.7C53.6,15,53.2,15,52.7,15c-0.5,0-0.9,0.1-1.3,0.2s-0.7,0.4-1,0.7c-0.3,0.3-0.5,0.6-0.6,1
			C49.6,17.3,49.6,17.8,49.6,18.3z"/>
		<path class="st1" d="M60,13.5h1.8V15h0c0.2-0.5,0.6-0.9,1.2-1.2c0.6-0.3,1.2-0.5,1.9-0.5c0.5,0,0.9,0.1,1.3,0.2
			c0.4,0.1,0.8,0.4,1.1,0.6c0.3,0.3,0.6,0.7,0.8,1.1c0.2,0.5,0.3,1,0.3,1.6V23h-1.8v-5.6c0-0.4-0.1-0.8-0.2-1.1
			c-0.1-0.3-0.3-0.6-0.5-0.8s-0.4-0.3-0.7-0.4C65,15,64.7,15,64.4,15c-0.4,0-0.7,0.1-1,0.2s-0.6,0.3-0.8,0.6s-0.4,0.6-0.6,1
			c-0.1,0.4-0.2,0.9-0.2,1.4V23H60V13.5z"/>
		<path class="st1" d="M38.1,16.3c-0.3-0.6-0.6-1.1-1.1-1.6c-0.5-0.5-1-0.8-1.6-1.1s-1.3-0.4-2-0.4c-0.7,0-1.4,0.1-2,0.4
			s-1.1,0.6-1.6,1.1s-0.8,1-1.1,1.6c-0.3,0.6-0.4,1.2-0.4,1.9s0.1,1.3,0.4,2c0.3,0.6,0.6,1.1,1.1,1.6c0.5,0.4,1,0.8,1.6,1.1
			c0.6,0.3,1.3,0.4,2,0.4c0.7,0,1.4-0.1,2-0.4c0.6-0.3,1.1-0.6,1.6-1.1c0.5-0.4,0.8-1,1.1-1.6c0.3-0.6,0.4-1.3,0.4-2
			S38.3,16.9,38.1,16.3z"/>
	</g>
</g>
</svg>
