<?xml version="1.0" encoding="utf-8"?>
<!-- Generator: Adobe Illustrator 19.0.0, SVG Export Plug-In . SVG Version: 6.00 Build 0)  -->
<svg version="1.1" id="Layer_1" xmlns="http://www.w3.org/2000/svg" xmlns:xlink="http://www.w3.org/1999/xlink" x="0px" y="0px"
	 viewBox="-111 226 276 50" style="enable-background:new -111 226 276 50;" xml:space="preserve">
<style type="text/css">
	.st0{fill:none;}
	.st1{fill:#FFFFFF;}
	.st2{font-family:'Avenir-Light';}
	.st3{font-size:40px;}
	.st4{fill:#03A9F4;stroke:#03A9F4;stroke-width:6;stroke-miterlimit:10;}
</style>
<rect x="-35.4" y="232.5" class="st0" width="193.6" height="37.7"/>
<text transform="matrix(1 0 0 1 -33.4592 262.7012)" class="st1 st2 st3">signed out</text>
<rect x="-36.4" y="232.5" class="st0" width="193.6" height="37.7"/>
<text transform="matrix(1 0 0 1 -34.4592 262.7012)" class="st1 st2 st3">signed out</text>
<g>
	<path class="st4" d="M-82.6,239c6.6,0,12,5.4,12,12s-5.4,12-12,12s-12-5.4-12-12S-89.2,239-82.6,239 M-82.6,238.5
		c-6.9,0-12.5,5.5-12.5,12.5s5.6,12.5,12.5,12.5s12.5-5.5,12.5-12.5S-75.6,238.5-82.6,238.5L-82.6,238.5z"/>
</g>
<rect x="-35.4" y="232.5" class="st0" width="193.6" height="37.7"/>
<text transform="matrix(1 0 0 1 -33.4592 262.7012)" class="st1 st2 st3">signed out</text>
</svg>
