<?xml version="1.0" encoding="utf-8"?>
<!-- Generator: Adobe Illustrator 19.0.0, SVG Export Plug-In . SVG Version: 6.00 Build 0)  -->
<svg version="1.1" id="Layer_1" xmlns="http://www.w3.org/2000/svg" xmlns:xlink="http://www.w3.org/1999/xlink" x="0px" y="0px"
	 viewBox="-124 226 250 50" style="enable-background:new -124 226 250 50;" xml:space="preserve">
<style type="text/css">
	.st0{fill:#03A9F4;}
	.st1{fill:none;}
	.st2{fill:#FFFFFF;}
	.st3{font-family:'Avenir-Light';}
	.st4{font-size:40px;}
</style>
<g>
	<circle class="st0" cx="-100.5" cy="251" r="12.2"/>
	<path class="st0" d="M-100.5,239c6.6,0,12,5.4,12,12c0,6.6-5.4,12-12,12c-6.6,0-12-5.4-12-12C-112.5,244.4-107.1,239-100.5,239
		 M-100.5,238.5c-6.9,0-12.5,5.6-12.5,12.5c0,6.9,5.6,12.5,12.5,12.5S-88,257.9-88,251C-88,244.1-93.6,238.5-100.5,238.5
		L-100.5,238.5z"/>
</g>
<rect x="-67.2" y="231.5" class="st1" width="188.7" height="37.7"/>
<text transform="matrix(1 0 0 1 -53.9842 261.7012)" class="st2 st3 st4">signed in</text>
</svg>
